<?xml version="1.0" encoding="UTF-8"?><svg xmlns="http://www.w3.org/2000/svg" xmlns:xlink="http://www.w3.org/1999/xlink" width="375" zoomAndPan="magnify" viewBox="0 0 375 374.999991" height="374.999991" preserveAspectRatio="xMidYMid meet" version="1.0"><defs><clipPath id="clip-0"><path d="M 40.371094 3.03125 L 334.371094 3.03125 L 334.371094 372 L 40.371094 372 Z M 40.371094 3.03125 " clip-rule="nonzero"/></clipPath><clipPath id="clip-1"><path d="M 245.402344 292.789062 L 245.402344 235.898438 L 108.375 235.898438 L 108.375 268.722656 C 116.761719 270.269531 123.652344 276.101562 126.695312 283.867188 L 177.378906 283.867188 C 180.152344 280.015625 184.671875 277.507812 189.777344 277.507812 C 198.207031 277.507812 205.046875 284.351562 205.046875 292.789062 C 205.046875 301.230469 198.210938 308.078125 189.777344 308.078125 C 184.671875 308.078125 180.152344 305.570312 177.378906 301.71875 L 126.695312 301.71875 C 124.875 306.367188 121.675781 310.316406 117.609375 313.078125 C 119.835938 317.542969 122.769531 321.605469 126.269531 325.105469 C 134.558594 333.402344 145.984375 338.554688 158.546875 338.554688 L 250.1875 338.554688 C 253.75 329.449219 262.605469 323 272.964844 323 C 283.324219 323 292.171875 329.449219 295.738281 338.554688 C 296.820312 341.316406 297.417969 344.332031 297.417969 347.480469 C 297.417969 361 286.46875 371.957031 272.964844 371.957031 C 262.605469 371.957031 253.75 365.511719 250.1875 356.40625 L 158.546875 356.40625 C 141.0625 356.40625 125.171875 349.253906 113.660156 337.726562 C 107.757812 331.816406 103 324.757812 99.769531 316.917969 C 89.585938 315.179688 81.554688 307.136719 79.816406 296.945312 C 71.988281 293.707031 64.933594 288.949219 59.03125 283.039062 C 47.515625 271.515625 40.371094 255.609375 40.371094 238.109375 C 40.371094 226.34375 43.613281 215.289062 49.25 205.792969 C 50.855469 203.089844 52.652344 200.515625 54.628906 198.085938 C 53.773438 195.59375 53.3125 192.921875 53.3125 190.140625 C 53.3125 186.027344 54.328125 182.148438 56.117188 178.75 C 53.550781 175.816406 51.25 172.644531 49.25 169.273438 C 43.613281 159.777344 40.371094 148.722656 40.371094 136.960938 C 40.371094 119.457031 47.515625 103.550781 59.03125 92.03125 C 64.933594 86.117188 71.988281 81.359375 79.816406 78.125 C 81.554688 67.933594 89.585938 59.890625 99.769531 58.148438 C 103.003906 50.3125 107.757812 43.25 113.660156 37.339844 C 125.171875 25.8125 141.0625 18.660156 158.546875 18.660156 L 250.1875 18.660156 C 253.75 9.558594 262.605469 3.109375 272.964844 3.109375 C 283.324219 3.109375 292.171875 9.558594 295.738281 18.660156 C 296.820312 21.425781 297.417969 24.4375 297.417969 27.585938 C 297.417969 30.734375 296.820312 33.746094 295.738281 36.511719 L 295.738281 36.515625 C 292.171875 45.621094 283.324219 52.066406 272.964844 52.066406 C 262.605469 52.066406 253.75 45.617188 250.1875 36.515625 L 158.546875 36.515625 C 145.984375 36.515625 134.558594 41.667969 126.269531 49.964844 C 122.769531 53.460938 119.832031 57.523438 117.609375 61.988281 C 121.675781 64.75 124.875 68.703125 126.695312 73.347656 L 177.378906 73.347656 C 180.152344 69.496094 184.671875 66.988281 189.777344 66.988281 C 198.207031 66.988281 205.046875 73.832031 205.046875 82.273438 C 205.046875 90.714844 198.210938 97.558594 189.777344 97.558594 C 184.671875 97.558594 180.152344 95.050781 177.378906 91.199219 L 126.695312 91.199219 C 123.652344 98.964844 116.765625 104.796875 108.375 106.34375 L 108.375 139.167969 L 213.867188 139.167969 C 215.675781 134.273438 220.378906 130.789062 225.898438 130.789062 C 232.980469 130.789062 238.722656 136.539062 238.722656 143.628906 C 238.722656 145.199219 238.441406 146.703125 237.925781 148.09375 C 236.117188 152.984375 231.414062 156.46875 225.898438 156.46875 C 220.378906 156.46875 215.675781 152.984375 213.867188 148.09375 L 99.457031 148.09375 L 99.457031 106.34375 C 92.898438 105.136719 87.253906 101.304688 83.652344 95.976562 C 79.191406 98.210938 75.136719 101.148438 71.640625 104.648438 C 63.347656 112.945312 58.207031 124.382812 58.207031 136.960938 C 58.207031 145.441406 60.53125 153.394531 64.578125 160.207031 C 66.027344 162.652344 67.699219 164.945312 69.5625 167.074219 C 72.125 166.160156 74.886719 165.660156 77.765625 165.660156 C 89.75 165.660156 99.714844 174.289062 101.8125 185.675781 L 268.035156 185.675781 L 268.035156 94.316406 C 263.148438 92.503906 259.664062 87.792969 259.664062 82.273438 C 259.664062 75.183594 265.410156 69.433594 272.492188 69.433594 C 279.574219 69.433594 285.320312 75.183594 285.320312 82.273438 C 285.320312 87.792969 281.835938 92.503906 276.953125 94.316406 L 276.953125 139.167969 L 309.511719 139.167969 C 311.324219 134.273438 316.027344 130.789062 321.542969 130.789062 C 328.628906 130.789062 334.371094 136.539062 334.371094 143.628906 C 334.371094 150.722656 328.628906 156.46875 321.542969 156.46875 C 316.027344 156.46875 311.324219 152.988281 309.511719 148.09375 L 276.953125 148.09375 L 276.953125 194.601562 L 101.8125 194.601562 C 99.714844 205.992188 89.75 214.621094 77.765625 214.621094 C 73.703125 214.621094 69.875 213.628906 66.507812 211.875 C 65.828125 212.84375 65.183594 213.839844 64.578125 214.859375 C 60.53125 221.671875 58.207031 229.625 58.207031 238.109375 C 58.207031 250.683594 63.347656 262.121094 71.640625 270.417969 C 75.136719 273.917969 79.191406 276.859375 83.65625 279.089844 C 87.253906 273.761719 92.898438 269.933594 99.457031 268.722656 L 99.457031 226.976562 L 286.964844 226.976562 C 288.777344 222.082031 293.480469 218.597656 298.992188 218.597656 C 304.511719 218.597656 309.214844 222.082031 311.023438 226.976562 C 311.542969 228.367188 311.820312 229.867188 311.820312 231.4375 C 311.820312 233.007812 311.542969 234.507812 311.023438 235.898438 C 309.214844 240.792969 304.511719 244.277344 298.992188 244.277344 C 293.480469 244.277344 288.777344 240.792969 286.964844 235.898438 L 254.320312 235.898438 L 254.320312 288.332031 L 309.511719 288.332031 C 311.324219 283.4375 316.027344 279.953125 321.546875 279.953125 C 328.628906 279.953125 334.371094 285.699219 334.371094 292.792969 C 334.371094 299.882812 328.628906 305.632812 321.546875 305.632812 C 316.03125 305.632812 311.324219 302.148438 309.511719 297.253906 L 245.402344 297.253906 Z M 245.402344 292.789062 " clip-rule="evenodd"/></clipPath><linearGradient x1="1088.807575" gradientTransform="matrix(0.0420109, 0, 0, 0.042054, 40.371506, 3.10794)" xmlns:xlink="http://www.w3.org/1999/xlink" y1="9361.584009" x2="6356.906707" gradientUnits="userSpaceOnUse" y2="-347.95116" xlink:type="simple" xlink:actuate="onLoad" id="linear-pattern-0" xlink:show="other"><stop stop-opacity="1" stop-color="rgb(18.502808%, 37.637329%, 66.957092%)" offset="0"/><stop stop-opacity="1" stop-color="rgb(18.55011%, 37.89978%, 67.13562%)" offset="0.00390625"/><stop stop-opacity="1" stop-color="rgb(18.598938%, 38.163757%, 67.314148%)" offset="0.0078125"/><stop stop-opacity="1" stop-color="rgb(18.64624%, 38.426208%, 67.492676%)" offset="0.0117188"/><stop stop-opacity="1" stop-color="rgb(18.695068%, 38.690186%, 67.671204%)" offset="0.015625"/><stop stop-opacity="1" stop-color="rgb(18.743896%, 38.952637%, 67.849731%)" offset="0.0195313"/><stop stop-opacity="1" stop-color="rgb(18.792725%, 39.215088%, 68.028259%)" offset="0.0234375"/><stop stop-opacity="1" stop-color="rgb(18.840027%, 39.477539%, 68.206787%)" offset="0.0273438"/><stop stop-opacity="1" stop-color="rgb(18.888855%, 39.741516%, 68.385315%)" offset="0.03125"/><stop stop-opacity="1" stop-color="rgb(18.936157%, 40.003967%, 68.563843%)" offset="0.0351563"/><stop stop-opacity="1" stop-color="rgb(18.984985%, 40.267944%, 68.742371%)" offset="0.0390625"/><stop stop-opacity="1" stop-color="rgb(19.032288%, 40.530396%, 68.920898%)" offset="0.0429688"/><stop stop-opacity="1" stop-color="rgb(19.081116%, 40.792847%, 69.099426%)" offset="0.046875"/><stop stop-opacity="1" stop-color="rgb(19.129944%, 41.055298%, 69.277954%)" offset="0.0507813"/><stop stop-opacity="1" stop-color="rgb(19.178772%, 41.319275%, 69.456482%)" offset="0.0546875"/><stop stop-opacity="1" stop-color="rgb(19.226074%, 41.581726%, 69.633484%)" offset="0.0585938"/><stop stop-opacity="1" stop-color="rgb(19.274902%, 41.845703%, 69.812012%)" offset="0.0625"/><stop stop-opacity="1" stop-color="rgb(19.322205%, 42.108154%, 69.99054%)" offset="0.0664063"/><stop stop-opacity="1" stop-color="rgb(19.371033%, 42.370605%, 70.169067%)" offset="0.0703125"/><stop stop-opacity="1" stop-color="rgb(19.419861%, 42.633057%, 70.347595%)" offset="0.0742188"/><stop stop-opacity="1" stop-color="rgb(19.468689%, 42.897034%, 70.526123%)" offset="0.078125"/><stop stop-opacity="1" stop-color="rgb(19.515991%, 43.159485%, 70.704651%)" offset="0.0820313"/><stop stop-opacity="1" stop-color="rgb(19.564819%, 43.423462%, 70.883179%)" offset="0.0859375"/><stop stop-opacity="1" stop-color="rgb(19.612122%, 43.685913%, 71.061707%)" offset="0.0898438"/><stop stop-opacity="1" stop-color="rgb(19.66095%, 43.948364%, 71.240234%)" offset="0.09375"/><stop stop-opacity="1" stop-color="rgb(19.709778%, 44.210815%, 71.418762%)" offset="0.0976563"/><stop stop-opacity="1" stop-color="rgb(19.758606%, 44.474792%, 71.59729%)" offset="0.101563"/><stop stop-opacity="1" stop-color="rgb(19.805908%, 44.737244%, 71.775818%)" offset="0.105469"/><stop stop-opacity="1" stop-color="rgb(19.854736%, 45.001221%, 71.954346%)" offset="0.109375"/><stop stop-opacity="1" stop-color="rgb(19.902039%, 45.263672%, 72.132874%)" offset="0.113281"/><stop stop-opacity="1" stop-color="rgb(19.950867%, 45.527649%, 72.311401%)" offset="0.117188"/><stop stop-opacity="1" stop-color="rgb(19.999695%, 45.7901%, 72.489929%)" offset="0.121094"/><stop stop-opacity="1" stop-color="rgb(20.048523%, 46.052551%, 72.668457%)" offset="0.125"/><stop stop-opacity="1" stop-color="rgb(20.095825%, 46.315002%, 72.845459%)" offset="0.128906"/><stop stop-opacity="1" stop-color="rgb(20.144653%, 46.578979%, 73.023987%)" offset="0.132813"/><stop stop-opacity="1" stop-color="rgb(20.191956%, 46.841431%, 73.202515%)" offset="0.136719"/><stop stop-opacity="1" stop-color="rgb(20.240784%, 47.105408%, 73.381042%)" offset="0.140625"/><stop stop-opacity="1" stop-color="rgb(20.288086%, 47.367859%, 73.55957%)" offset="0.144531"/><stop stop-opacity="1" stop-color="rgb(20.336914%, 47.63031%, 73.738098%)" offset="0.148438"/><stop stop-opacity="1" stop-color="rgb(20.385742%, 47.892761%, 73.916626%)" offset="0.152344"/><stop stop-opacity="1" stop-color="rgb(20.43457%, 48.156738%, 74.095154%)" offset="0.15625"/><stop stop-opacity="1" stop-color="rgb(20.481873%, 48.419189%, 74.273682%)" offset="0.160156"/><stop stop-opacity="1" stop-color="rgb(20.530701%, 48.683167%, 74.452209%)" offset="0.164063"/><stop stop-opacity="1" stop-color="rgb(20.578003%, 48.945618%, 74.630737%)" offset="0.167969"/><stop stop-opacity="1" stop-color="rgb(20.626831%, 49.208069%, 74.809265%)" offset="0.171875"/><stop stop-opacity="1" stop-color="rgb(20.675659%, 49.47052%, 74.987793%)" offset="0.175781"/><stop stop-opacity="1" stop-color="rgb(20.724487%, 49.734497%, 75.166321%)" offset="0.179688"/><stop stop-opacity="1" stop-color="rgb(20.77179%, 49.996948%, 75.344849%)" offset="0.183594"/><stop stop-opacity="1" stop-color="rgb(20.820618%, 50.260925%, 75.523376%)" offset="0.1875"/><stop stop-opacity="1" stop-color="rgb(20.86792%, 50.523376%, 75.701904%)" offset="0.191406"/><stop stop-opacity="1" stop-color="rgb(20.916748%, 50.785828%, 75.880432%)" offset="0.195312"/><stop stop-opacity="1" stop-color="rgb(20.965576%, 51.048279%, 76.057434%)" offset="0.199219"/><stop stop-opacity="1" stop-color="rgb(21.014404%, 51.312256%, 76.235962%)" offset="0.203125"/><stop stop-opacity="1" stop-color="rgb(21.061707%, 51.574707%, 76.41449%)" offset="0.207031"/><stop stop-opacity="1" stop-color="rgb(21.110535%, 51.838684%, 76.593018%)" offset="0.210938"/><stop stop-opacity="1" stop-color="rgb(21.157837%, 52.101135%, 76.771545%)" offset="0.214844"/><stop stop-opacity="1" stop-color="rgb(21.206665%, 52.363586%, 76.950073%)" offset="0.21875"/><stop stop-opacity="1" stop-color="rgb(21.255493%, 52.626038%, 77.128601%)" offset="0.222656"/><stop stop-opacity="1" stop-color="rgb(21.304321%, 52.890015%, 77.307129%)" offset="0.226562"/><stop stop-opacity="1" stop-color="rgb(21.351624%, 53.152466%, 77.485657%)" offset="0.230469"/><stop stop-opacity="1" stop-color="rgb(21.400452%, 53.416443%, 77.664185%)" offset="0.234375"/><stop stop-opacity="1" stop-color="rgb(21.447754%, 53.678894%, 77.842712%)" offset="0.238281"/><stop stop-opacity="1" stop-color="rgb(21.496582%, 53.941345%, 78.02124%)" offset="0.242188"/><stop stop-opacity="1" stop-color="rgb(21.543884%, 54.203796%, 78.199768%)" offset="0.246094"/><stop stop-opacity="1" stop-color="rgb(21.592712%, 54.467773%, 78.378296%)" offset="0.25"/><stop stop-opacity="1" stop-color="rgb(21.620178%, 54.606628%, 78.471375%)" offset="0.257813"/><stop stop-opacity="1" stop-color="rgb(21.673584%, 54.878235%, 78.652954%)" offset="0.265625"/><stop stop-opacity="1" stop-color="rgb(21.723938%, 55.140686%, 78.82843%)" offset="0.273438"/><stop stop-opacity="1" stop-color="rgb(21.775818%, 55.404663%, 79.005432%)" offset="0.28125"/><stop stop-opacity="1" stop-color="rgb(21.826172%, 55.667114%, 79.182434%)" offset="0.289063"/><stop stop-opacity="1" stop-color="rgb(21.878052%, 55.931091%, 79.35791%)" offset="0.296875"/><stop stop-opacity="1" stop-color="rgb(21.929932%, 56.193542%, 79.534912%)" offset="0.302121"/><stop stop-opacity="1" stop-color="rgb(21.955872%, 56.324768%, 79.623413%)" offset="0.304688"/><stop stop-opacity="1" stop-color="rgb(21.980286%, 56.455994%, 79.710388%)" offset="0.3125"/><stop stop-opacity="1" stop-color="rgb(22.032166%, 56.719971%, 79.88739%)" offset="0.320313"/><stop stop-opacity="1" stop-color="rgb(22.084045%, 56.982422%, 80.062866%)" offset="0.328125"/><stop stop-opacity="1" stop-color="rgb(22.134399%, 57.246399%, 80.239868%)" offset="0.335938"/><stop stop-opacity="1" stop-color="rgb(22.186279%, 57.50885%, 80.415344%)" offset="0.34375"/><stop stop-opacity="1" stop-color="rgb(22.236633%, 57.772827%, 80.592346%)" offset="0.351563"/><stop stop-opacity="1" stop-color="rgb(22.288513%, 58.035278%, 80.767822%)" offset="0.359375"/><stop stop-opacity="1" stop-color="rgb(22.340393%, 58.299255%, 80.944824%)" offset="0.367188"/><stop stop-opacity="1" stop-color="rgb(22.390747%, 58.561707%, 81.1203%)" offset="0.375"/><stop stop-opacity="1" stop-color="rgb(22.442627%, 58.825684%, 81.297302%)" offset="0.382813"/><stop stop-opacity="1" stop-color="rgb(22.494507%, 59.088135%, 81.474304%)" offset="0.390625"/><stop stop-opacity="1" stop-color="rgb(22.544861%, 59.350586%, 81.64978%)" offset="0.398438"/><stop stop-opacity="1" stop-color="rgb(22.596741%, 59.614563%, 81.826782%)" offset="0.40625"/><stop stop-opacity="1" stop-color="rgb(22.647095%, 59.877014%, 82.002258%)" offset="0.414062"/><stop stop-opacity="1" stop-color="rgb(22.698975%, 60.140991%, 82.17926%)" offset="0.421875"/><stop stop-opacity="1" stop-color="rgb(22.750854%, 60.403442%, 82.354736%)" offset="0.429688"/><stop stop-opacity="1" stop-color="rgb(22.801208%, 60.667419%, 82.531738%)" offset="0.4375"/><stop stop-opacity="1" stop-color="rgb(22.853088%, 60.929871%, 82.707214%)" offset="0.445312"/><stop stop-opacity="1" stop-color="rgb(22.904968%, 61.193848%, 82.884216%)" offset="0.453125"/><stop stop-opacity="1" stop-color="rgb(22.955322%, 61.456299%, 83.059692%)" offset="0.460938"/><stop stop-opacity="1" stop-color="rgb(23.007202%, 61.71875%, 83.236694%)" offset="0.46875"/><stop stop-opacity="1" stop-color="rgb(23.057556%, 61.982727%, 83.413696%)" offset="0.476562"/><stop stop-opacity="1" stop-color="rgb(23.109436%, 62.245178%, 83.589172%)" offset="0.484375"/><stop stop-opacity="1" stop-color="rgb(23.161316%, 62.509155%, 83.766174%)" offset="0.492188"/><stop stop-opacity="1" stop-color="rgb(23.21167%, 62.771606%, 83.94165%)" offset="0.5"/><stop stop-opacity="1" stop-color="rgb(23.26355%, 63.035583%, 84.118652%)" offset="0.507812"/><stop stop-opacity="1" stop-color="rgb(23.31543%, 63.298035%, 84.294128%)" offset="0.515625"/><stop stop-opacity="1" stop-color="rgb(23.365784%, 63.562012%, 84.47113%)" offset="0.523438"/><stop stop-opacity="1" stop-color="rgb(23.417664%, 63.824463%, 84.646606%)" offset="0.53125"/><stop stop-opacity="1" stop-color="rgb(23.468018%, 64.08844%, 84.823608%)" offset="0.539063"/><stop stop-opacity="1" stop-color="rgb(23.519897%, 64.350891%, 84.999084%)" offset="0.546875"/><stop stop-opacity="1" stop-color="rgb(23.571777%, 64.613342%, 85.176086%)" offset="0.554688"/><stop stop-opacity="1" stop-color="rgb(23.622131%, 64.877319%, 85.351562%)" offset="0.5625"/><stop stop-opacity="1" stop-color="rgb(23.674011%, 65.139771%, 85.528564%)" offset="0.570313"/><stop stop-opacity="1" stop-color="rgb(23.725891%, 65.403748%, 85.705566%)" offset="0.578125"/><stop stop-opacity="1" stop-color="rgb(23.776245%, 65.666199%, 85.881042%)" offset="0.585938"/><stop stop-opacity="1" stop-color="rgb(23.828125%, 65.930176%, 86.058044%)" offset="0.59375"/><stop stop-opacity="1" stop-color="rgb(23.880005%, 66.192627%, 86.233521%)" offset="0.601563"/><stop stop-opacity="1" stop-color="rgb(23.930359%, 66.456604%, 86.410522%)" offset="0.609375"/><stop stop-opacity="1" stop-color="rgb(23.982239%, 66.719055%, 86.585999%)" offset="0.617188"/><stop stop-opacity="1" stop-color="rgb(24.032593%, 66.981506%, 86.763%)" offset="0.625"/><stop stop-opacity="1" stop-color="rgb(24.084473%, 67.245483%, 86.938477%)" offset="0.632813"/><stop stop-opacity="1" stop-color="rgb(24.136353%, 67.507935%, 87.115479%)" offset="0.640625"/><stop stop-opacity="1" stop-color="rgb(24.186707%, 67.771912%, 87.290955%)" offset="0.648438"/><stop stop-opacity="1" stop-color="rgb(24.238586%, 68.034363%, 87.467957%)" offset="0.65625"/><stop stop-opacity="1" stop-color="rgb(24.290466%, 68.29834%, 87.644958%)" offset="0.664063"/><stop stop-opacity="1" stop-color="rgb(24.34082%, 68.560791%, 87.820435%)" offset="0.671875"/><stop stop-opacity="1" stop-color="rgb(24.3927%, 68.824768%, 87.997437%)" offset="0.679688"/><stop stop-opacity="1" stop-color="rgb(24.443054%, 69.087219%, 88.172913%)" offset="0.6875"/><stop stop-opacity="1" stop-color="rgb(24.494934%, 69.351196%, 88.349915%)" offset="0.695313"/><stop stop-opacity="1" stop-color="rgb(24.546814%, 69.613647%, 88.525391%)" offset="0.697879"/><stop stop-opacity="1" stop-color="rgb(24.572754%, 69.744873%, 88.613892%)" offset="0.703125"/><stop stop-opacity="1" stop-color="rgb(24.597168%, 69.876099%, 88.702393%)" offset="0.710938"/><stop stop-opacity="1" stop-color="rgb(24.649048%, 70.140076%, 88.877869%)" offset="0.71875"/><stop stop-opacity="1" stop-color="rgb(24.700928%, 70.402527%, 89.054871%)" offset="0.726563"/><stop stop-opacity="1" stop-color="rgb(24.751282%, 70.666504%, 89.230347%)" offset="0.734375"/><stop stop-opacity="1" stop-color="rgb(24.803162%, 70.928955%, 89.407349%)" offset="0.742188"/><stop stop-opacity="1" stop-color="rgb(24.853516%, 71.192932%, 89.582825%)" offset="0.75"/><stop stop-opacity="1" stop-color="rgb(24.905396%, 71.455383%, 89.759827%)" offset="0.757813"/><stop stop-opacity="1" stop-color="rgb(24.957275%, 71.71936%, 89.936829%)" offset="0.765625"/><stop stop-opacity="1" stop-color="rgb(25.007629%, 71.981812%, 90.112305%)" offset="0.773438"/><stop stop-opacity="1" stop-color="rgb(25.059509%, 72.244263%, 90.289307%)" offset="0.78125"/><stop stop-opacity="1" stop-color="rgb(25.111389%, 72.50824%, 90.464783%)" offset="0.789063"/><stop stop-opacity="1" stop-color="rgb(25.161743%, 72.770691%, 90.641785%)" offset="0.796875"/><stop stop-opacity="1" stop-color="rgb(25.213623%, 73.034668%, 90.817261%)" offset="0.804688"/><stop stop-opacity="1" stop-color="rgb(25.263977%, 73.297119%, 90.994263%)" offset="0.8125"/><stop stop-opacity="1" stop-color="rgb(25.315857%, 73.561096%, 91.169739%)" offset="0.820313"/><stop stop-opacity="1" stop-color="rgb(25.367737%, 73.823547%, 91.346741%)" offset="0.828125"/><stop stop-opacity="1" stop-color="rgb(25.418091%, 74.087524%, 91.522217%)" offset="0.835938"/><stop stop-opacity="1" stop-color="rgb(25.469971%, 74.349976%, 91.699219%)" offset="0.84375"/><stop stop-opacity="1" stop-color="rgb(25.497437%, 74.490356%, 91.793823%)" offset="0.875"/><stop stop-opacity="1" stop-color="rgb(25.498962%, 74.499512%, 91.799927%)" offset="1"/></linearGradient></defs><g clip-path="url(#clip-0)"><g clip-path="url(#clip-1)"><path fill="url(#linear-pattern-0)" d="M 40.371094 3.109375 L 40.371094 371.957031 L 334.371094 371.957031 L 334.371094 3.109375 Z M 40.371094 3.109375 " fill-rule="nonzero"/></g></g></svg>